<svg width="329" height="75" viewBox="0 0 329 75" fill="none" xmlns="http://www.w3.org/2000/svg">
<path d="M0.2 74V72.5H7.2V30.5H0.2V29H7.2V20C7.2 14.2 8.8 9.56666 12 6.1C15.2 2.63333 19.6667 0.899999 25.4 0.899999C29.1333 0.899999 32.3 1.73333 34.9 3.4C37.5 5 38.8 7.06666 38.8 9.59999C38.8 11.4667 38.1333 13.0333 36.8 14.3C35.4667 15.5 33.6333 16.1 31.3 16.1C30.1667 16.1 28.8333 15.9 27.3 15.5V14.7C29.0333 15.0333 30.3 14.5667 31.1 13.3C31.9667 12.0333 32.4 10.6 32.4 9C32.4 7.06666 31.7667 5.46666 30.5 4.2C29.2333 2.86666 27.5333 2.19999 25.4 2.19999C22.0667 2.19999 19.6667 3.33333 18.2 5.6C16.7333 7.8 16 11.3 16 16.1V29H27.6V30.5H16V72.5H24V74H0.2ZM30.543 30.5V29H46.343V62.8C46.343 66.6 46.843 69.2333 47.843 70.7C48.9096 72.1667 50.7763 72.9 53.443 72.9C56.043 72.9 58.343 72.3 60.343 71.1C62.343 69.8333 63.8763 68.2667 64.943 66.4C66.0096 64.4667 66.7763 62.6333 67.243 60.9C67.7763 59.1 68.043 57.4667 68.043 56V30.5H61.743V29H76.843V72.5H83.843V74H68.243V63.3H68.043C65.243 70.9 59.8763 74.7 51.943 74.7C47.0096 74.7 43.3763 73.6 41.043 71.4C38.7096 69.2 37.543 65.7333 37.543 61V30.5H30.543ZM87.6023 30.5V29H103.202V39.6H103.402C104.469 36.4667 106.069 33.8 108.202 31.6C110.402 29.4 113.102 28.3 116.302 28.3C119.036 28.3 121.302 29.1333 123.102 30.8C124.902 32.4667 125.802 34.6667 125.802 37.4C125.802 39.8 125.136 41.7333 123.802 43.2C122.469 44.6 120.769 45.3 118.702 45.3C117.302 45.3 116.169 45.1 115.302 44.7V43.9C117.569 44.3 118.702 42.3333 118.702 38C118.702 32.9333 117.169 30.4 114.102 30.4C111.502 30.4 109.069 32.2333 106.802 35.9C104.536 39.6333 103.402 43.3333 103.402 47V72.5H111.402V74H87.6023V72.5H94.6023V30.5H87.6023ZM162.999 34.9L152.699 44.6L174.099 72.5H178.199V74H159.599V72.5H163.699L146.599 49.7H144.499V72.5H150.699V74H128.699V72.5H135.699V3.7H128.699V2.19999H144.499V48.2H146.599L160.999 34.7C162.199 33.6333 162.666 32.6667 162.399 31.8C162.199 30.9333 161.266 30.5 159.599 30.5H158.299V29H174.599V30.5H172.599C169.266 30.5 166.066 31.9667 162.999 34.9ZM180.083 30.5V29H195.683V39.6H195.883C196.949 36.4667 198.549 33.8 200.683 31.6C202.883 29.4 205.583 28.3 208.783 28.3C211.516 28.3 213.783 29.1333 215.583 30.8C217.383 32.4667 218.283 34.6667 218.283 37.4C218.283 39.8 217.616 41.7333 216.283 43.2C214.949 44.6 213.249 45.3 211.183 45.3C209.783 45.3 208.649 45.1 207.783 44.7V43.9C210.049 44.3 211.183 42.3333 211.183 38C211.183 32.9333 209.649 30.4 206.583 30.4C203.983 30.4 201.549 32.2333 199.283 35.9C197.016 39.6333 195.883 43.3333 195.883 47V72.5H203.883V74H180.083V72.5H187.083V30.5H180.083ZM222.889 63.5C222.889 60.1 224.222 57.3 226.889 55.1C229.622 52.8333 232.822 51.3 236.489 50.5C240.222 49.6333 244.289 49.2 248.689 49.2H249.689V38.7C249.689 35.5667 249.089 33.2667 247.889 31.8C246.756 30.3333 244.622 29.6 241.489 29.6C235.222 29.6 232.089 32.1333 232.089 37.2C232.089 39 232.489 40.4333 233.289 41.5C234.089 42.5667 235.256 42.9333 236.789 42.6V43.4C235.589 43.8 234.289 44 232.889 44C230.622 44 228.789 43.4333 227.389 42.3C225.989 41.1 225.289 39.5 225.289 37.5C225.289 34.7 226.689 32.4667 229.489 30.8C232.356 29.1333 236.356 28.3 241.489 28.3C252.822 28.3 258.489 32.8667 258.489 42V68.1C258.489 71.1 259.389 72.6 261.189 72.6C262.789 72.6 263.956 71.9667 264.689 70.7C265.489 69.3667 265.889 67.7 265.889 65.7H267.389C267.389 68.6333 266.656 70.8667 265.189 72.4C263.722 73.9333 261.789 74.7 259.389 74.7C256.722 74.7 254.622 74 253.089 72.6C251.556 71.1333 250.722 69.1 250.589 66.5H250.389C249.256 68.7667 247.489 70.7 245.089 72.3C242.689 73.9 239.789 74.7 236.389 74.7C232.722 74.7 229.556 73.8 226.889 72C224.222 70.1333 222.889 67.3 222.889 63.5ZM232.389 63.7C232.389 69.9 234.322 73 238.189 73C240.322 73 242.489 72.2333 244.689 70.7C248.022 68.3 249.689 65.9 249.689 63.5V50.7H247.889C243.489 50.7 240.022 51.4333 237.489 52.9C234.089 54.8333 232.389 58.4333 232.389 63.7ZM269.536 74V72.5H276.536V30.5H269.536V29H276.536V20C276.536 14.2 278.136 9.56666 281.336 6.1C284.536 2.63333 289.003 0.899999 294.736 0.899999C298.469 0.899999 301.636 1.73333 304.236 3.4C306.836 5 308.136 7.06666 308.136 9.59999C308.136 11.4667 307.469 13.0333 306.136 14.3C304.803 15.5 302.969 16.1 300.636 16.1C299.503 16.1 298.169 15.9 296.636 15.5V14.7C298.369 15.0333 299.636 14.5667 300.436 13.3C301.303 12.0333 301.736 10.6 301.736 9C301.736 7.06666 301.103 5.46666 299.836 4.2C298.569 2.86666 296.869 2.19999 294.736 2.19999C291.403 2.19999 289.003 3.33333 287.536 5.6C286.069 7.8 285.336 11.3 285.336 16.1V29H296.936V30.5H285.336V72.5H293.336V74H269.536ZM306.879 61.7V30.5H300.179V29H303.379C306.512 29 309.079 27.2333 311.079 23.7C313.146 20.1 314.179 16.5667 314.179 13.1H315.679V29H327.379V30.5H315.679V64.2C315.679 67.1333 316.012 69.2667 316.679 70.6C317.412 71.8667 318.746 72.5 320.679 72.5C324.879 72.5 326.979 70.0667 326.979 65.2H328.479C328.479 67.8667 327.712 70.1333 326.179 72C324.712 73.8 322.146 74.7 318.479 74.7C310.746 74.7 306.879 70.3667 306.879 61.7Z" fill="black"/>
</svg>
